<svg id="visual" viewBox="0 0 1980 1080" width="1980" height="1080" xmlns="http://www.w3.org/2000/svg" xmlns:xlink="http://www.w3.org/1999/xlink" version="1.1"><rect x="0" y="0" width="1980" height="1080" fill="#b1dfe8"></rect><path d="M1303 0L1201 0L1201 64L1147 64L1147 127L882 127L882 191L1536 191L1536 254L882 254L882 318L1668 318L1668 381L796 381L796 445L829 445L829 508L896 508L896 572L1226 572L1226 635L1289 635L1289 699L1266 699L1266 762L1313 762L1313 826L768 826L768 889L899 889L899 953L1009 953L1009 1016L1606 1016L1606 1080L0 1080L0 1016L0 1016L0 953L0 953L0 889L0 889L0 826L0 826L0 762L0 762L0 699L0 699L0 635L0 635L0 572L0 572L0 508L0 508L0 445L0 445L0 381L0 381L0 318L0 318L0 254L0 254L0 191L0 191L0 127L0 127L0 64L0 64L0 0L0 0Z" fill="#3adda7"></path><path d="M586 0L378 0L378 64L369 64L369 127L404 127L404 191L577 191L577 254L374 254L374 318L329 318L329 381L858 381L858 445L831 445L831 508L625 508L625 572L928 572L928 635L828 635L828 699L379 699L379 762L401 762L401 826L329 826L329 889L316 889L316 953L1003 953L1003 1016L616 1016L616 1080L0 1080L0 1016L0 1016L0 953L0 953L0 889L0 889L0 826L0 826L0 762L0 762L0 699L0 699L0 635L0 635L0 572L0 572L0 508L0 508L0 445L0 445L0 381L0 381L0 318L0 318L0 254L0 254L0 191L0 191L0 127L0 127L0 64L0 64L0 0L0 0Z" fill="#2477ad"></path></svg>